<svg xmlns="http://www.w3.org/2000/svg" width="209.065" height="88.345" viewBox="0 0 209.065 88.345">
  <defs>
    <style>
      .cls-1 {
        fill: #003560;
      }

      .cls-2 {
        fill: none;
        stroke: #003560;
        stroke-width: 2px;
      }
    </style>
  </defs>
  <g id="Group_130" data-name="Group 130" transform="translate(-2.302 -1.019)">
    <g id="Group_5" data-name="Group 5" transform="translate(2.302 1.019)">
      <g id="Group_4" data-name="Group 4" transform="translate(203.16 6.701)">
        <path id="Path_10" data-name="Path 10" class="cls-1" d="M362.989,12.817a2.965,2.965,0,1,1-.013,0Zm-.013.466a2.532,2.532,0,0,0,.013,5.056,2.437,2.437,0,0,0,2.392-2.521,2.456,2.456,0,0,0-2.392-2.535Zm-.555,4.26h-.533V14.211a5.971,5.971,0,0,1,.943-.08,1.75,1.75,0,0,1,1.036.252.8.8,0,0,1,.3.689.83.83,0,0,1-.649.811v.026c.291.053.491.317.558.811a2.817,2.817,0,0,0,.21.822h-.558a2.521,2.521,0,0,1-.226-.849.621.621,0,0,0-.714-.586h-.371Zm0-1.844h.383c.438,0,.809-.16.809-.571,0-.294-.212-.585-.809-.585a2.581,2.581,0,0,0-.383.027Z" transform="translate(-360.018 -12.817)"/>
      </g>
      <path id="Path_11" data-name="Path 11" class="cls-1" d="M6.836,37.789A32.351,32.351,0,0,1,37.98,5.626L38,1.1A36.89,36.89,0,0,0,6.686,55.407l3.951-2.225A32.192,32.192,0,0,1,6.836,37.789Z" transform="translate(-2.302 -1.052)"/>
      <path id="Path_12" data-name="Path 12" class="cls-1" d="M100.061,37.7a32.174,32.174,0,0,1-3.964,15.7l3.951,2.223A36.878,36.878,0,0,0,68.309,1.019l.027,4.533A32.345,32.345,0,0,1,100.061,37.7Z" transform="translate(-30.821 -1.019)"/>
      <path id="Path_13" data-name="Path 13" class="cls-1" d="M43.2,111.372A32.322,32.322,0,0,1,15.914,96.137L11.96,98.364a36.879,36.879,0,0,0,62.413.618l-3.931-2.269A32.32,32.32,0,0,1,43.2,111.372Z" transform="translate(-6.475 -42.116)"/>
      <path id="Path_14" data-name="Path 14" class="cls-1" d="M47.529,103.848A26.841,26.841,0,0,1,25,91.386l-3.079,1.738a30.39,30.39,0,0,0,51.131.558L70,91.923A26.856,26.856,0,0,1,47.529,103.848Z" transform="translate(-10.779 -40.063)"/>
      <path id="Path_15" data-name="Path 15" class="cls-1" d="M17.239,42.752A26.861,26.861,0,0,1,42.885,16.068l.018-3.551A30.4,30.4,0,0,0,17.274,57.155l3.071-1.729A26.782,26.782,0,0,1,17.239,42.752Z" transform="translate(-7.236 -5.987)"/>
      <path id="Path_16" data-name="Path 16" class="cls-1" d="M94.858,43.021a26.765,26.765,0,0,1-3.405,12.956L94.5,57.734A30.392,30.392,0,0,0,68.942,12.509l-.018,3.537A26.865,26.865,0,0,1,94.858,43.021Z" transform="translate(-31.087 -5.983)"/>
      <path id="Path_17" data-name="Path 17" class="cls-1" d="M51.046,94.3a19.909,19.909,0,0,1-16.508-8.919L29.978,87.95a25.149,25.149,0,0,0,42.012.516l-4.557-2.628A19.905,19.905,0,0,1,51.046,94.3Z" transform="translate(-14.26 -37.469)"/>
      <path id="Path_18" data-name="Path 18" class="cls-1" d="M28.179,46.8A19.915,19.915,0,0,1,46.834,27.033l.027-5.237A25.131,25.131,0,0,0,25.829,58.591l4.57-2.576A19.8,19.8,0,0,1,28.179,46.8Z" transform="translate(-11.22 -9.996)"/>
      <path id="Path_19" data-name="Path 19" class="cls-1" d="M87.876,46.985A19.854,19.854,0,0,1,85.4,56.5l4.533,2.612A25.138,25.138,0,0,0,68.89,21.764L68.863,27A19.911,19.911,0,0,1,87.876,46.985Z" transform="translate(-31.061 -9.982)"/>
      <path id="Path_20" data-name="Path 20" class="cls-1" d="M165.1,58.254c0,10.147.751,10.8,8.548,11.367v3.661H142.468V69.621c6.386-.564,7.138-1.22,7.138-11.367V27.264c0-10.142-.751-10.8-6.668-11.366V12.236h27.422c8.83,0,13.995,1.315,17.751,4.039,4.039,2.912,6.669,7.232,6.669,13.525,0,12.583-9.39,19.066-19.911,20-1.031.094-1.972.094-2.723.094l-7.045-.16Zm0-14.172a13.6,13.6,0,0,0,4.04.275c3,0,8.826-2.255,8.826-14.653,0-9.768-5.352-12.773-9.579-12.773-3.1,0-3.288.47-3.288,3.381Z" transform="translate(-62.863 -5.865)"/>
      <path id="Path_21" data-name="Path 21" class="cls-1" d="M252.086,16.275c-3.755-2.724-8.923-4.039-17.751-4.039H210.616a25,25,0,0,1,5.55,2.515,17.492,17.492,0,0,1,7.807,15.228c0,8.793-4.236,14.369-10.394,18.021V58.254c0,10.147-.751,10.8-7.137,11.367v3.661h31.18V69.621c-7.794-.564-8.546-1.22-8.546-11.367V49.737l7.045.16c.75,0,1.69,0,2.723-.094,10.52-.938,19.912-7.42,19.912-20C258.756,23.507,256.126,19.186,252.086,16.275ZM233.114,44.357c-1.646,0-2.491.244-4.038-.275V20.313c0-2.911.187-3.381,3.288-3.381,4.224,0,9.579,3,9.579,12.773C241.943,42.1,236.121,44.357,233.114,44.357Z" transform="translate(-90.504 -5.865)"/>
      <path id="Path_22" data-name="Path 22" class="cls-1" d="M311.215,18.115c5.55,0,10.424,1.3,13.1,10.654h3.29V18.6c-2.28-3.051-9.237-6.087-15.336-6.087a37.4,37.4,0,0,0-19.314,5.36c2.3,2.816,4.282,5.988,4.545,10.437C300.05,21.817,304.833,18.115,311.215,18.115Z" transform="translate(-127.884 -5.984)"/>
      <path id="Path_23" data-name="Path 23" class="cls-1" d="M271.878,71.282c2.765,11.663,12.063,22.395,29.823,22.395,4.59,0,12.65-2,16.8-7.856V75.19h-3.323c-1.919,9.482-5.9,12.35-13.152,12.525-8.373.2-15.694-9.486-15.694-26.209,0-.5.012-.992.031-1.485C283.609,65.927,278.087,69.284,271.878,71.282Z" transform="translate(-118.776 -26.512)"/>
    </g>
    <line id="Line_1" data-name="Line 1" class="cls-2" x2="119.733" transform="translate(82.167 73.609)"/>
    <g id="Group_6" data-name="Group 6" transform="translate(82.056 79.923)">
      <path id="Path_24" data-name="Path 24" class="cls-1" d="M146.27,140.016h1.438l3.413,9.4h-1.4l-.981-2.816h-3.689l-1.019,2.816h-1.306Zm2.112,5.55-1.448-4.154-1.5,4.154Z" transform="translate(-142.729 -139.979)"/>
      <path id="Path_25" data-name="Path 25" class="cls-1" d="M164.583,149.391V139.95h4.511c2.124,0,3.816.5,3.816,2.373a2.483,2.483,0,0,1-1.233,2.058,2.112,2.112,0,0,1,1.574,2.164c0,2.111-1.613,2.845-4.065,2.845Zm3.095-7.238v1.573h1.285c.616,0,1.062-.275,1.062-.826,0-.734-.6-.747-1.259-.747Zm0,3.291v1.745h1.351c.76,0,1.337-.158,1.337-.866,0-.826-.721-.879-1.7-.879Z" transform="translate(-152.171 -139.95)"/>
      <path id="Path_26" data-name="Path 26" class="cls-1" d="M182.634,149.391V139.95h7.7v2.2h-4.6V143.5h3.894v2.2h-3.894v1.482h4.786v2.2Z" transform="translate(-159.971 -139.95)"/>
      <path id="Path_27" data-name="Path 27" class="cls-1" d="M199.3,149.391V139.95h3.094v7.238h4.249v2.2Z" transform="translate(-167.171 -139.95)"/>
      <path id="Path_28" data-name="Path 28" class="cls-1" d="M214.441,149.391V139.95h4.143c3.042,0,4.93,1.416,4.93,4.524,0,3.554-1.979,4.917-5.008,4.917Zm3.095-2.2h.655c1.442,0,2.229-.76,2.229-2.544,0-1.967-.643-2.492-2.3-2.492h-.59Z" transform="translate(-173.713 -139.95)"/>
      <path id="Path_29" data-name="Path 29" class="cls-1" d="M232.652,149.391V139.95h7.7v2.2h-4.6V143.5h3.894v2.2h-3.894v1.482h4.785v2.2Z" transform="translate(-181.581 -139.95)"/>
      <path id="Path_30" data-name="Path 30" class="cls-1" d="M255.424,145.1l-.118-2.151v-3h2.963v9.441h-2.9L252,144.25l.118,2.151v2.99h-2.964V139.95h2.9Z" transform="translate(-188.712 -139.95)"/>
      <path id="Path_31" data-name="Path 31" class="cls-1" d="M276.18,140.016h4.066a2.7,2.7,0,0,1,2.364.986,2.268,2.268,0,0,1,.412,1.344,2.113,2.113,0,0,1-.505,1.459,2.478,2.478,0,0,1-.755.551,3.191,3.191,0,0,1,1.081.621,2.252,2.252,0,0,1,.634,1.7,2.616,2.616,0,0,1-.573,1.645,3.238,3.238,0,0,1-2.725,1.1h-4Zm3.589,3.975a2.92,2.92,0,0,0,1.268-.224,1.29,1.29,0,0,0,.712-1.268,1.22,1.22,0,0,0-.756-1.242,3.428,3.428,0,0,0-1.268-.179h-2.3v2.912Zm.431,4.34a1.964,1.964,0,0,0,1.686-.679,1.7,1.7,0,0,0,.316-1.037,1.38,1.38,0,0,0-.924-1.4,3.526,3.526,0,0,0-1.3-.2h-2.552v3.309Z" transform="translate(-200.388 -139.979)"/>
      <path id="Path_32" data-name="Path 32" class="cls-1" d="M291.9,140.016h4.274a4.194,4.194,0,0,1,1.741.314,2.227,2.227,0,0,1,1.3,2.221,2.314,2.314,0,0,1-1.325,2.247,1.929,1.929,0,0,1,.829.589,2.114,2.114,0,0,1,.311,1.184l.045,1.261a3.876,3.876,0,0,0,.089.8.787.787,0,0,0,.41.576v.211h-1.562a1.158,1.158,0,0,1-.1-.314,6.056,6.056,0,0,1-.064-.742l-.077-1.568a1.324,1.324,0,0,0-.666-1.236,2.69,2.69,0,0,0-1.113-.173h-2.817v4.033H291.9Zm4.137,4.308a2.347,2.347,0,0,0,1.378-.358,1.478,1.478,0,0,0,.508-1.293,1.4,1.4,0,0,0-.71-1.369,2.255,2.255,0,0,0-1.014-.193h-3.025v3.213Z" transform="translate(-207.181 -139.979)"/>
      <path id="Path_33" data-name="Path 33" class="cls-1" d="M310.439,140.016h1.438l3.413,9.4h-1.4l-.982-2.816h-3.689l-1.02,2.816H306.9Zm2.112,5.55-1.448-4.154-1.5,4.154Z" transform="translate(-213.66 -139.979)"/>
      <path id="Path_34" data-name="Path 34" class="cls-1" d="M323.7,140.016h1.5l4.689,7.6v-7.6H331.1v9.4h-1.431l-4.759-7.589v7.589H323.7Z" transform="translate(-220.919 -139.979)"/>
      <path id="Path_35" data-name="Path 35" class="cls-1" d="M340.467,140.016h3.759a3.525,3.525,0,0,1,2.969,1.376,5.125,5.125,0,0,1,.941,3.182,6.414,6.414,0,0,1-.556,2.707,3.426,3.426,0,0,1-3.367,2.138h-3.746Zm3.509,8.315a3.361,3.361,0,0,0,1.039-.135,2.294,2.294,0,0,0,1.189-.96,3.981,3.981,0,0,0,.532-1.459,5.713,5.713,0,0,0,.094-.986,4.672,4.672,0,0,0-.679-2.714,2.485,2.485,0,0,0-2.187-.967h-2.21v7.221Z" transform="translate(-228.164 -139.979)"/>
    </g>
  </g>
</svg>
